<svg xmlns="http://www.w3.org/2000/svg" xmlns:xlink="http://www.w3.org/1999/xlink" viewBox="0 0 40 40"><path d="M 39.945 21.5 L 32.8 21.5 C 26.56 21.5 21.5 26.559 21.5 32.8 L 21.5 39.944 C 31.35 39.214 39.215 31.35 39.945 21.5 Z M 18.5 39.944 L 18.5 32.8 C 18.5 26.559 13.441 21.5 7.2 21.5 L 0.056 21.5 C 0.786 31.35 8.65 39.214 18.5 39.944 Z M 39.945 18.5 C 39.215 8.65 31.35 0.786 21.5 0.055 L 21.5 7.2 C 21.5 13.44 26.56 18.5 32.8 18.5 Z M 18.5 0.055 C 8.65 0.785 0.786 8.65 0.056 18.5 L 7.2 18.5 C 13.441 18.5 18.5 13.44 18.5 7.2 Z" fill="rgb(17, 255, 0)"></path><path d="M 13.583 20 C 16.359 18.611 18.611 16.359 20 13.582 C 21.389 16.359 23.641 18.611 26.418 20 C 23.641 21.389 21.389 23.64 20 26.417 C 18.611 23.641 16.359 21.389 13.583 20 Z" fill="rgb(255, 140, 0)"></path></svg>